<?xml version="1.0" encoding="UTF-8" standalone="no"?>
<svg
   xmlns:dc="http://purl.org/dc/elements/1.1/"
   xmlns:cc="http://creativecommons.org/ns#"
   xmlns:rdf="http://www.w3.org/1999/02/22-rdf-syntax-ns#"
   xmlns:svg="http://www.w3.org/2000/svg"
   xmlns="http://www.w3.org/2000/svg"
   viewBox="0 0 390.51749 450.02499"
   height="450.02499"
   width="390.51749"
   xml:space="preserve"
   version="1.1"
   id="svg2"><metadata
     id="metadata8"><rdf:RDF><cc:Work
         rdf:about=""><dc:format>image/svg+xml</dc:format><dc:type
           rdf:resource="http://purl.org/dc/dcmitype/StillImage" /></cc:Work></rdf:RDF></metadata><defs
     id="defs6"><clipPath
       id="clipPath18"
       clipPathUnits="userSpaceOnUse"><path
         id="path20"
         d="m 0,0 419.528,0 0,595.276 L 0,595.276 0,0 Z" /></clipPath><clipPath
       id="clipPath26"
       clipPathUnits="userSpaceOnUse"><path
         id="path28"
         d="m 0,0 419.528,0 0,595.276 L 0,595.276 0,0 Z" /></clipPath><clipPath
       id="clipPath86"
       clipPathUnits="userSpaceOnUse"><path
         id="path88"
         d="m 66.764,446.889 c -0.501,-0.501 -45,-231.502 143,-321.502 l 0,0 c 188,90 143.5,321.001 143,321.502 l 0,0 c -108,-11.501 -143,22.999 -143,22.999 l 0,0 c 0,0 -35,-34.5 -143,-22.999" /></clipPath><clipPath
       id="clipPath112"
       clipPathUnits="userSpaceOnUse"><path
         id="path114"
         d="m 0,0 419.528,0 0,595.276 L 0,595.276 0,0 Z" /></clipPath></defs><g
     transform="matrix(1.25,0,0,-1.25,0,450.025)"
     id="g10"><g
       transform="translate(-53.557,-117.728)"
       id="g12"><g
         id="g14"><g
           clip-path="url(#clipPath18)"
           id="g16"><g
             id="g22"><g
               clip-path="url(#clipPath26)"
               id="g24"><g
                 transform="translate(209.7635,125.3873)"
                 id="g30"><path
                   id="path32"
                   style="fill:#302c2d;fill-opacity:1;fill-rule:nonzero;stroke:none"
                   d="m 0,0 c -188,90 -143.5,321.001 -143,321.501 108,-11.5 143,23 143,23 0,0 35,-34.5 143.001,-23 C 143.501,321.001 188.001,90 0,0" /></g></g></g><g
             transform="translate(209.7635,445.5601)"
             id="g34"><path
               id="path36"
               style="fill:#ffffff;fill-opacity:1;fill-rule:nonzero;stroke:none"
               d="m 0,0 2.885,-8.876 9.332,0 -7.55,-5.485 2.884,-8.876 -7.551,5.485 -7.55,-5.485 2.884,8.876 -7.551,5.485 9.333,0 L 0,0 Z" /></g><g
             transform="translate(251.764,433.941)"
             id="g38"><path
               id="path40"
               style="fill:#ffffff;fill-opacity:1;fill-rule:nonzero;stroke:none"
               d="m 0,0 2.885,-8.876 9.332,0 -7.551,-5.485 2.885,-8.876 -7.551,5.485 -7.551,-5.485 2.885,8.876 -7.551,5.485 9.332,0 L 0,0 Z" /></g><g
             transform="translate(239.5472,403.858)"
             id="g42"><path
               id="path44"
               style="fill:#ffffff;fill-opacity:1;fill-rule:nonzero;stroke:none"
               d="m 0,0 2.885,-8.876 9.332,0 -7.551,-5.486 2.885,-8.876 -7.551,5.485 -7.551,-5.485 2.885,8.876 -7.551,5.486 9.332,0 L 0,0 Z" /></g><g
             transform="translate(277.2133,404.691)"
             id="g46"><path
               id="path48"
               style="fill:#ffffff;fill-opacity:1;fill-rule:nonzero;stroke:none"
               d="m 0,0 2.885,-8.876 9.334,0 -7.551,-5.486 2.883,-8.876 -7.551,5.485 -7.549,-5.485 2.883,8.876 -7.551,5.486 9.334,0 L 0,0 Z" /></g><g
             transform="translate(296.7133,430.524)"
             id="g50"><path
               id="path52"
               style="fill:#ffffff;fill-opacity:1;fill-rule:nonzero;stroke:none"
               d="m 0,0 2.885,-8.876 9.334,0 -7.551,-5.486 2.883,-8.876 -7.551,5.485 -7.549,-5.485 2.883,8.876 -7.551,5.486 9.334,0 L 0,0 Z" /></g><g
             transform="translate(317.7133,404.691)"
             id="g54"><path
               id="path56"
               style="fill:#ffffff;fill-opacity:1;fill-rule:nonzero;stroke:none"
               d="m 0,0 2.885,-8.876 9.334,0 -7.551,-5.486 2.883,-8.876 -7.551,5.485 -7.549,-5.485 2.883,8.876 -7.551,5.486 9.334,0 L 0,0 Z" /></g><g
             transform="translate(167.7635,433.941)"
             id="g58"><path
               id="path60"
               style="fill:#ffffff;fill-opacity:1;fill-rule:nonzero;stroke:none"
               d="m 0,0 -2.885,-8.876 -9.333,0 7.551,-5.485 -2.884,-8.876 7.551,5.485 7.55,-5.485 -2.884,8.876 7.551,5.485 -9.333,0 L 0,0 Z" /></g><g
             transform="translate(179.9803,403.858)"
             id="g62"><path
               id="path64"
               style="fill:#ffffff;fill-opacity:1;fill-rule:nonzero;stroke:none"
               d="m 0,0 -2.885,-8.876 -9.333,0 7.551,-5.486 -2.884,-8.876 7.551,5.485 7.55,-5.485 -2.884,8.876 7.551,5.486 -9.333,0 L 0,0 Z" /></g><g
             transform="translate(142.3133,404.691)"
             id="g66"><path
               id="path68"
               style="fill:#ffffff;fill-opacity:1;fill-rule:nonzero;stroke:none"
               d="m 0,0 -2.885,-8.876 -9.333,0 7.551,-5.486 -2.884,-8.876 7.551,5.485 7.55,-5.485 -2.884,8.876 7.551,5.486 -9.333,0 L 0,0 Z" /></g><g
             transform="translate(122.8133,430.524)"
             id="g70"><path
               id="path72"
               style="fill:#ffffff;fill-opacity:1;fill-rule:nonzero;stroke:none"
               d="m 0,0 -2.885,-8.876 -9.333,0 7.551,-5.486 -2.884,-8.876 7.551,5.485 7.55,-5.485 -2.884,8.876 7.551,5.486 -9.333,0 L 0,0 Z" /></g><g
             transform="translate(101.8133,404.691)"
             id="g74"><path
               id="path76"
               style="fill:#ffffff;fill-opacity:1;fill-rule:nonzero;stroke:none"
               d="m 0,0 -2.885,-8.876 -9.333,0 7.551,-5.486 -2.884,-8.876 7.551,5.485 7.55,-5.485 -2.884,8.876 7.551,5.486 -9.333,0 L 0,0 Z" /></g><g
             transform="translate(209.7635,411.5601)"
             id="g78"><path
               id="path80"
               style="fill:#ffffff;fill-opacity:1;fill-rule:nonzero;stroke:none"
               d="m 0,0 2.885,-8.876 9.332,0 -7.55,-5.485 2.884,-8.876 -7.551,5.485 -7.55,-5.485 2.884,8.876 -7.551,5.485 9.333,0 L 0,0 Z" /></g><g
             id="g82"><g
               clip-path="url(#clipPath86)"
               id="g84"><path
                 id="path90"
                 style="fill:#287ac8;fill-opacity:1;fill-rule:nonzero;stroke:none"
                 d="m 96.802,85.109 -32.273,0 0,286.711 32.273,0 0,-286.711 z" /><path
                 id="path92"
                 style="fill:#302c2d;fill-opacity:1;fill-rule:nonzero;stroke:none"
                 d="m 129.078,85.109 -32.276,0 0,286.711 32.276,0 0,-286.711 z" /><path
                 id="path94"
                 style="fill:#ffffff;fill-opacity:1;fill-rule:nonzero;stroke:none"
                 d="m 161.353,85.109 -32.276,0 0,286.711 32.276,0 0,-286.711 z" /><path
                 id="path96"
                 style="fill:#287ac8;fill-opacity:1;fill-rule:nonzero;stroke:none"
                 d="m 193.627,85.109 -32.274,0 0,286.711 32.274,0 0,-286.711 z" /><path
                 id="path98"
                 style="fill:#302c2d;fill-opacity:1;fill-rule:nonzero;stroke:none"
                 d="m 225.902,85.109 -32.274,0 0,286.711 32.274,0 0,-286.711 z" /><path
                 id="path100"
                 style="fill:#ffffff;fill-opacity:1;fill-rule:nonzero;stroke:none"
                 d="m 258.176,85.109 -32.274,0 0,286.711 32.274,0 0,-286.711 z" /><path
                 id="path102"
                 style="fill:#287ac8;fill-opacity:1;fill-rule:nonzero;stroke:none"
                 d="m 290.453,85.109 -32.276,0 0,286.711 32.276,0 0,-286.711 z" /><path
                 id="path104"
                 style="fill:#302c2d;fill-opacity:1;fill-rule:nonzero;stroke:none"
                 d="m 322.726,85.109 -32.273,0 0,286.711 32.273,0 0,-286.711 z" /><path
                 id="path106"
                 style="fill:#ffffff;fill-opacity:1;fill-rule:nonzero;stroke:none"
                 d="m 355,85.109 -32.274,0 0,286.711 32.274,0 0,-286.711 z" /></g></g><g
             id="g108"><g
               clip-path="url(#clipPath112)"
               id="g110"><g
                 transform="translate(209.7635,125.3873)"
                 id="g116"><path
                   id="path118"
                   style="fill:none;stroke:#302c2d;stroke-width:14;stroke-linecap:round;stroke-linejoin:round;stroke-miterlimit:10;stroke-dasharray:none;stroke-opacity:1"
                   d="m 0,0 c -188,90 -143.5,321.001 -143,321.501 108.667,0 143,23 143,23 0,0 34.667,-23 143.001,-23 C 143.501,321.001 188.001,90 0,0 Z" /></g></g></g></g></g></g></g></svg>